<svg width="1446" height="571" viewBox="0 0 1446 571" fill="none" xmlns="http://www.w3.org/2000/svg">
<mask id="mask0" mask-type="alpha" maskUnits="userSpaceOnUse" x="0" y="0" width="1446" height="585">
<rect width="1446" height="585" fill="#FAE6E8"/>
</mask>
<g mask="url(#mask0)">
<rect width="1446" height="585" fill="#FAE6E8"/>
<path d="M792.633 -71.7815C634.412 -71.7815 506.102 56.4326 506.102 214.536C506.102 372.64 634.412 500.854 792.633 500.854C950.854 500.854 1079.16 372.64 1079.16 214.536C1079.16 56.4326 950.854 -71.7815 792.633 -71.7815ZM630.325 408.082C626.729 410.532 619.865 410.532 616.595 406.122C615.124 404.326 553.34 339.32 538.629 256.022C532.745 222.539 536.504 160.964 544.023 142.018C545.004 138.751 549.09 136.464 552.196 135.974C558.407 133.688 565.108 139.731 563.801 145.121C563.801 145.611 550.561 222.049 568.541 279.868C588.318 333.604 634.902 389.953 636.21 394.363C638.335 401.712 635.719 404.162 630.325 408.082ZM681.976 451.201C681.813 452.018 681.486 452.671 681.159 453.488C679.197 456.918 673.967 458.225 670.044 456.428C664.65 453.978 650.266 442.545 647.324 438.625C643.892 433.888 642.584 429.969 645.526 426.375C646.507 424.905 647.815 423.762 649.286 423.109C652.555 420.822 656.805 420.659 660.727 423.109C670.698 427.519 682.957 436.175 683.284 447.771C682.957 448.751 682.63 449.895 681.976 451.201ZM905.905 -11.8394C894.136 -16.4126 883.021 -22.2925 870.926 -25.8858C858.831 -29.479 846.245 -31.929 833.659 -33.2356C808.488 -35.8489 783.316 -34.2156 758.308 -31.2756C747.847 -29.969 748.011 -46.302 758.308 -47.6086C784.297 -50.7119 810.612 -52.3452 836.765 -49.2419C849.841 -47.772 862.917 -45.4854 875.503 -41.7288C887.598 -38.1355 898.876 -32.2556 910.481 -27.6824C919.962 -23.9258 915.712 -8.08276 905.905 -11.8394ZM991.553 394.853C983.708 403.836 974.227 410.369 964.42 417.065C954.94 423.435 947.421 432.092 937.287 437.482C927.971 442.545 919.798 428.335 929.115 423.435C938.432 418.372 945.46 410.532 954.123 404.489C963.44 397.956 972.43 392.076 980.112 383.419C986.977 375.416 998.582 387.013 991.553 394.853Z" stroke="white" stroke-width="5" stroke-miterlimit="10"/>
<path d="M687.206 -108.694C632.941 -96.281 583.415 -64.2683 544.513 -25.3957C497.766 21.48 464.586 82.0755 452.327 147.244C444.154 190.69 445.135 234.789 452.981 278.072C455.759 293.588 479.46 287.055 476.681 271.538C464.259 203.43 472.431 132.381 504.304 70.479C530.456 19.8467 570.339 -23.5991 618.884 -53.6518C642.094 -68.0249 667.102 -79.1313 693.745 -85.1745C709.109 -88.6044 702.571 -112.287 687.206 -108.694Z" stroke="white" stroke-width="5" stroke-miterlimit="10"/>
<path d="M550.888 465.411C618.557 523.72 706.167 556.549 795.411 557.202C820.746 557.366 846.081 554.916 870.926 550.016C886.454 546.912 879.916 523.393 864.388 526.333C760.433 546.749 648.305 517.186 568.05 447.934C556.445 437.808 538.956 455.121 550.888 465.411Z" stroke="white" stroke-width="5" stroke-miterlimit="10"/>
<path d="M1018.03 -9.38961C1057.91 25.563 1082.76 73.0921 1096.16 123.888C1110.38 178.113 1112.18 233.972 1098.12 288.524C1089.79 320.864 1076.88 351.57 1060.2 380.642C1052.36 394.362 1073.61 406.775 1081.45 393.056C1112.51 338.667 1131.96 277.418 1132.61 214.536C1133.27 157.697 1119.54 98.4082 1093.22 47.9392C1078.67 20.0098 1059.22 -5.63302 1035.36 -26.5393C1023.43 -36.9924 1006.1 -19.8427 1018.03 -9.38961Z" stroke="white" stroke-width="5" stroke-miterlimit="10"/>
<path d="M719.733 7.1065C691.456 21.9695 663.179 37.8126 639.806 59.6988C616.269 81.4217 597.635 109.678 593.058 141.364C588.482 173.05 599.76 207.839 625.749 226.622C635.883 233.809 647.815 238.545 656.478 247.365C668.246 259.125 672.496 276.438 673.967 292.934C675.275 309.43 674.13 326.253 677.399 342.586C686.226 387.829 728.069 421.965 773.346 430.948C818.622 439.931 866.023 427.028 906.722 405.305C965.074 374.109 1014.11 322.824 1034.7 259.941C1055.3 197.059 1044.68 122.908 1000.71 73.4185C966.382 34.7093 917.019 4.00321 865.859 -3.83664C814.699 -11.5132 778.086 -11.5131 719.733 7.1065Z" stroke="white" stroke-width="5" stroke-miterlimit="10"/>
<path d="M396.426 -227.435C386.783 -269.738 353.112 -261.898 316.825 -259.938C219.081 -254.711 121.991 -239.195 27.6796 -213.389C19.3435 -211.102 10.8441 -208.652 4.6329 -202.609C-5.66454 -192.809 -6.31834 -176.966 -6.31834 -162.757C-6.48179 -13.6362 -6.64525 135.321 -6.64525 284.441C-6.64525 317.924 -16.7792 409.715 15.2573 431.438C48.6014 453.978 117.414 424.088 144.057 403.182C179.036 375.743 201.102 332.787 202.9 288.361C205.515 226.296 170.536 165.537 180.67 104.288C188.679 55.9425 223.495 16.7432 260.598 -15.2695C297.538 -47.2822 338.891 -75.5382 367.822 -115.064C390.542 -146.587 405.253 -188.563 396.426 -227.435ZM124.606 378.846C121.664 385.216 115.126 390.769 108.915 393.709C101.56 397.302 93.8774 396.976 86.1952 395.016C82.9262 394.199 79.9841 390.606 80.1475 387.176C80.6379 375.743 89.4643 368.393 99.4348 363.983C100.089 363.166 100.742 362.513 101.723 361.86C108.098 358.103 116.597 355.49 122.808 361.206C127.875 365.943 127.385 373.293 124.606 378.846ZM166.45 311.881C164.162 321.354 160.239 329.52 156.152 337.36C153.21 343.077 149.124 349.937 142.423 350.263C136.538 350.427 132.452 346.18 131.798 340.463C130.491 330.337 136.865 319.067 140.625 310.084C147.163 294.078 145.365 276.275 142.586 259.615C139.971 244.262 135.067 229.236 133.76 213.556C132.942 204.573 131.144 191.18 136.375 183.177C139.48 178.44 145.201 176.807 150.268 179.747C155.335 182.523 156.479 187.75 157.297 193.14C158.114 199.51 157.787 205.879 158.768 212.249C160.075 220.416 162.364 228.582 164.162 236.749C169.065 262.228 173.478 286.238 166.45 311.881ZM263.704 -70.8017C250.627 -62.7985 236.08 -57.2453 224.639 -46.6288C213.197 -36.1757 206.169 -21.8027 194.89 -11.0229C187.208 -3.83636 177.728 -13.6362 183.285 -22.6193C193.256 -38.299 202.573 -49.0788 214.832 -59.8586C227.09 -70.475 237.878 -77.8249 255.204 -84.8481C265.338 -88.9313 272.693 -76.3549 263.704 -70.8017ZM317.643 -113.757C314.374 -110.654 310.124 -108.531 305.547 -107.388C301.134 -106.244 296.884 -108.858 295.577 -113.104C294.269 -117.187 297.211 -122.087 301.297 -123.231C301.951 -123.394 302.768 -123.557 303.422 -123.884C303.586 -123.884 303.749 -124.047 303.913 -124.047C304.566 -124.374 305.22 -124.701 305.711 -125.027C305.874 -125.191 305.874 -125.191 306.038 -125.354C309.307 -128.457 314.21 -128.457 317.643 -125.354C320.912 -122.414 320.748 -116.697 317.643 -113.757Z" stroke="white" stroke-width="5" stroke-miterlimit="10"/>
<path d="M1266.81 -322.983C1241.47 -324.29 1083.58 -252.425 1090.11 -227.762C1096.65 -203.262 1118.06 -185.786 1139.48 -172.066C1160.73 -158.347 1184.1 -145.444 1198.16 -124.374C1225.94 -82.7249 1208.29 -26.5393 1217.93 22.7864C1226.76 68.0288 1261.08 107.555 1304.73 122.418C1348.37 137.281 1399.69 127.154 1434.51 96.7749L1266.81 -322.983ZM1242.78 -128.457C1253.4 -128.457 1253.24 -112.124 1242.78 -112.124C1232.32 -112.124 1232.32 -128.457 1242.78 -128.457ZM1249.32 -45.3223C1249.15 -55.9387 1247.35 -66.2285 1247.19 -76.845C1247.03 -87.2981 1263.37 -87.2981 1263.54 -76.845C1263.7 -66.3919 1265.5 -55.9387 1265.66 -45.3223C1265.82 -34.8691 1249.48 -34.8691 1249.32 -45.3223ZM1335.95 99.3882C1291 100.858 1267.95 47.1225 1258.63 10.8633C1256.02 0.573469 1271.87 -3.67311 1274.32 6.45336C1281.68 35.1994 1299.33 84.1985 1335.78 83.0552C1346.57 82.7285 1346.41 99.0615 1335.95 99.3882Z" stroke="white" stroke-width="5" stroke-miterlimit="10"/>
<path d="M442.683 -225.965C442.029 -158.347 415.387 -91.7081 368.476 -42.8724C343.631 -17.0662 313.556 3.02336 290.346 30.4628C269.097 55.6156 254.223 85.6684 247.195 117.681C239.186 153.94 240.493 192.16 252.262 227.439C257.166 242.302 280.866 235.932 275.962 220.906C255.858 160.637 268.934 91.2216 311.595 43.5292C335.459 16.9064 365.37 -3.18318 389.561 -29.316C412.444 -54.1422 430.914 -82.8883 443.991 -113.921C459.028 -149.364 467.037 -187.256 467.364 -225.802C467.364 -241.645 442.846 -241.645 442.683 -225.965Z" stroke="white" stroke-width="5" stroke-miterlimit="10"/>
<path d="M26.2086 516.044C81.1283 514.574 142.749 503.14 183.122 463.125C194.4 452.018 177.074 434.705 165.796 445.812C130.164 481.091 74.4268 490.237 26.2086 491.544C10.5172 492.034 10.5172 516.534 26.2086 516.044Z" stroke="white" stroke-width="5" stroke-miterlimit="10"/>
<path d="M16.5648 744.868C29.9679 667.45 85.3779 601.628 160.893 578.108C200.121 565.858 241.801 564.878 281.52 575.822C324.998 587.745 364.39 610.938 405.743 628.251C451.509 647.523 502.997 660.263 551.869 645.4C566.906 640.827 560.532 617.144 545.331 621.717C500.708 635.274 453.798 622.534 412.444 604.731C370.11 586.601 329.901 563.082 285.116 551.485C202.082 529.763 110.223 555.569 52.1973 618.941C21.7953 652.26 0.71004 693.909 -7.13563 738.335C-9.75086 753.851 13.7862 760.384 16.5648 744.868Z" stroke="white" stroke-width="5" stroke-miterlimit="10"/>
<path d="M984.688 476.68C1052.36 551.812 1097.47 645.89 1114.96 745.358C1119.86 773.614 1122.31 802.361 1122.64 830.943C1122.8 846.786 1147.32 846.786 1147.16 830.943C1146.01 724.942 1114.31 619.594 1056.61 530.416C1040.26 505.263 1021.96 481.417 1002.01 459.204C991.39 447.608 974.227 464.921 984.688 476.68Z" stroke="white" stroke-width="5" stroke-miterlimit="10"/>
<path d="M1018.52 -221.719C1022.77 -173.537 1059.39 -141.524 1094.53 -112.941C1126.56 -86.8085 1169.72 -49.2425 1155.17 -2.69346C1150.43 12.3329 1174.13 18.8661 1178.87 3.83974C1193.74 -43.8526 1161.71 -87.9518 1127.38 -117.515C1094.85 -145.444 1047.29 -174.353 1043.2 -221.719C1041.57 -237.235 1017.05 -237.399 1018.52 -221.719Z" stroke="white" stroke-width="5" stroke-miterlimit="10"/>
<path d="M1231.99 172.887C1277.59 223.846 1346.73 251.939 1414.89 247.202C1430.58 246.059 1430.75 221.559 1414.89 222.702C1352.62 226.949 1291 202.123 1249.32 155.574C1238.69 143.814 1221.37 161.127 1231.99 172.887Z" stroke="white" stroke-width="5" stroke-miterlimit="10"/>
<path d="M1324.83 343.077C1281.03 352.223 1241.96 377.866 1214.99 413.308C1187.37 449.731 1173.97 498.077 1177.07 543.483C1178.87 570.432 1186.55 596.402 1200.93 619.268C1209.27 632.661 1230.52 620.248 1222.18 606.855C1193.74 561.612 1195.7 501.833 1218.42 454.468C1240.16 409.389 1282.33 376.723 1331.21 366.596C1346.73 363.493 1340.2 339.81 1324.83 343.077Z" stroke="white" stroke-width="5" stroke-miterlimit="10"/>
<path d="M1379.59 421.475C1354.25 423.271 1328.43 425.231 1304.73 434.378C1281.03 443.524 1259.29 461.164 1251.6 485.337C1245.07 505.753 1249.15 528.129 1255.2 548.709C1261.25 569.288 1269.58 589.541 1271.22 610.937C1273.83 642.297 1262.23 673.003 1248.83 701.586C1235.59 730.168 1220.22 758.261 1214.17 789.131C1208.13 820 1213.68 855.279 1236.73 876.676C1254.55 893.335 1279.88 899.052 1304.07 902.482C1384.49 913.915 1467.52 907.055 1545 882.392L1379.59 421.475ZM1275.8 841.233C1269.42 840.416 1264.68 838.13 1259.12 835.19C1258.31 834.7 1257.65 834.21 1257 833.72C1254.87 832.903 1253.08 831.27 1252.59 828.33C1249.32 811.997 1246.05 795.991 1248.17 779.331C1249.48 769.041 1252.59 750.258 1265.82 748.461C1282.01 746.338 1278.74 768.714 1276.78 777.698C1274.65 787.497 1273.02 796.807 1275.47 806.607C1277.59 814.937 1281.19 822.777 1283.8 830.78C1285.11 835.516 1281.03 841.886 1275.8 841.233Z" stroke="white" stroke-width="5" stroke-miterlimit="10"/>
<path d="M67.3983 -293.094C109.569 -272.024 177.074 -192.809 165.96 -147.077C160.729 -125.517 148.797 -106.244 137.192 -87.2981C120.357 -60.022 103.358 -32.9092 86.5221 -5.79642C71.1577 18.8664 55.6298 44.0192 33.7273 63.1289C11.8248 82.2385 -17.433 94.9782 -46.0371 90.2417C-74.6411 85.5051 -100.466 59.3723 -98.3415 30.4629" stroke="white" stroke-width="5" stroke-miterlimit="10"/>
</g>
</svg>
