<svg width="39" height="39" viewBox="0 0 39 39" fill="none" xmlns="http://www.w3.org/2000/svg">
<ellipse cx="19.8047" cy="20.7188" rx="16.1484" ry="15.2344" fill="white"/>
<path d="M19.5 0C8.73209 0 0 8.73209 0 19.5C0 30.2679 8.73209 39 19.5 39C30.2679 39 39 30.2679 39 19.5C39 8.73209 30.2679 0 19.5 0ZM28.4035 15.204C28.4121 15.3959 28.4163 15.5888 28.4163 15.7825C28.4163 21.6968 23.9144 28.5168 15.6816 28.5171H15.6819H15.6816C13.1539 28.5171 10.8018 27.7763 8.82106 26.5066C9.17127 26.548 9.52773 26.5685 9.88866 26.5685C11.9858 26.5685 13.9156 25.8532 15.4477 24.6526C13.4884 24.6163 11.8364 23.3223 11.2663 21.5438C11.5391 21.5962 11.8197 21.6248 12.1075 21.6248C12.516 21.6248 12.9117 21.5697 13.2878 21.4671C11.2398 21.0571 9.69704 19.2471 9.69704 17.0798C9.69704 17.0595 9.69704 17.0414 9.69763 17.0226C10.3008 17.358 10.9905 17.5597 11.7248 17.5823C10.523 16.7804 9.73304 15.4096 9.73304 13.8567C9.73304 13.0367 9.95471 12.2684 10.3391 11.607C12.5463 14.3153 15.8449 16.0964 19.5649 16.2835C19.4881 15.9556 19.4485 15.614 19.4485 15.2629C19.4485 12.7921 21.4531 10.7875 23.9248 10.7875C25.2123 10.7875 26.3751 11.3318 27.1919 12.2018C28.2116 12.0006 29.1691 11.6281 30.034 11.1154C29.6993 12.1601 28.9899 13.0367 28.0658 13.591C28.9712 13.4827 29.8341 13.2426 30.636 12.8861C30.037 13.7838 29.2774 14.5723 28.4035 15.204Z" fill="#4E141B"/>
</svg>
