<svg width="114" height="28" viewBox="0 0 114 28" fill="none" xmlns="http://www.w3.org/2000/svg">
<mask id="path-1-inside-1" fill="white">
<path d="M27.2134 18.0231C27.1521 16.977 26.7914 15.9799 26.1838 15.1765C25.5761 14.3732 24.7531 13.8056 23.8343 13.5561C22.9156 13.3066 21.949 13.3883 21.075 13.7893C20.201 14.1903 19.4652 14.8897 18.9745 15.7858C18.8679 14.2764 18.8786 12.7596 19.0065 11.2522C19.2911 8.04509 20.3103 3.65927 23.5529 0.988347C23.6083 0.943476 23.6528 0.883841 23.682 0.814942C23.7112 0.746043 23.7243 0.670099 23.72 0.594115C23.7251 0.479774 23.6914 0.36748 23.6256 0.27924C23.5598 0.190999 23.4666 0.133173 23.3643 0.117095C21.3924 -0.184303 19.3837 0.0986294 17.5426 0.937097C15.8702 1.69522 14.3152 2.73877 12.934 4.02984C12.0434 4.84584 11.2065 5.73116 10.4295 6.67908C10.4402 6.53913 10.4456 6.39918 10.4456 6.25725C10.4461 5.27787 10.194 4.31873 9.7191 3.49278C9.24418 2.66683 8.56616 2.00848 7.76491 1.59527C6.96366 1.18205 6.07255 1.03119 5.19652 1.16043C4.32049 1.28968 3.49603 1.69366 2.82024 2.32479C2.61848 2.51595 2.43165 2.72564 2.26172 2.95162C1.16335 4.2847 0.427053 5.93446 0.137615 7.71093C-0.151823 9.4874 0.0173687 11.3183 0.625708 12.9929C1.23405 14.6675 2.25679 16.1176 3.57619 17.1763C4.89558 18.2351 6.45796 18.8593 8.08343 18.9771H8.11011C8.2205 18.9811 8.32777 18.9362 8.40833 18.8525C8.48889 18.7688 8.53613 18.653 8.53967 18.5307C8.54321 18.4083 8.50275 18.2895 8.4272 18.2002C8.35164 18.1109 8.24718 18.0586 8.13679 18.0546C6.66545 17.9502 5.2508 17.3865 4.05636 16.4287C2.86191 15.4709 1.93643 14.1581 1.38688 12.6419C0.837326 11.1258 0.686145 9.46827 0.950805 7.86093C1.21547 6.2536 1.88516 4.76207 2.88249 3.55874L2.89317 3.54297C3.54359 2.69747 4.46876 2.17048 5.46773 2.07646C6.46671 1.98244 7.45882 2.32898 8.22859 3.04081C8.99836 3.75265 9.48364 4.7723 9.57901 5.8783C9.67439 6.98431 9.37218 8.08736 8.738 8.94788L8.75756 8.97154C8.71048 9.07127 8.69824 9.18674 8.72318 9.29584C8.74812 9.40495 8.80849 9.50003 8.89274 9.56289C8.95435 9.60953 9.02609 9.63706 9.10053 9.6426C9.17497 9.64815 9.2494 9.63152 9.31608 9.59443C9.76816 9.18292 10.3036 8.89911 10.8764 8.76735C11.4492 8.63559 12.0423 8.65982 12.6049 8.83796C13.1674 9.01609 13.6825 9.34282 14.106 9.79009C14.5295 10.2374 14.8488 10.7918 15.0364 11.4059C15.0711 11.5225 15.1461 11.619 15.245 11.6743C15.3439 11.7296 15.4586 11.739 15.5638 11.7006C15.669 11.6622 15.7561 11.579 15.806 11.4694C15.8558 11.3598 15.8644 11.2327 15.8297 11.1162C15.4733 9.94843 14.735 8.97112 13.7603 8.37706C12.7856 7.78299 11.6455 7.61532 10.5647 7.90711C11.4524 6.75599 12.4278 5.69158 13.48 4.72566C15.5487 2.84321 18.6952 0.743923 22.3006 0.931183C21.0735 2.17162 20.1027 3.69123 19.4547 5.386C18.7567 7.23312 18.3234 9.18977 18.1705 11.1852C18.0621 12.4601 18.0348 13.7419 18.0887 15.021C18.0068 14.9146 17.9215 14.8101 17.8325 14.7116C17.2075 14.0197 16.4173 13.5399 15.5548 13.3286C14.6922 13.1173 13.7932 13.1831 12.9633 13.5185C12.1333 13.8538 11.407 14.4447 10.8697 15.2217C10.3323 15.9987 10.0062 16.9296 9.92973 17.9048C9.90839 18.1954 9.90839 18.4875 9.92973 18.7781C10.0141 21.2653 10.9685 23.6186 12.5909 25.3398C14.2133 27.0609 16.3765 28.0149 18.6224 27.9998C20.8684 27.9847 23.0209 27.0017 24.6243 25.2588C26.2278 23.5159 27.1563 21.15 27.2134 18.6618C27.2259 18.4491 27.2259 18.2358 27.2134 18.0231ZM26.3828 18.6302C26.3135 20.8662 25.4659 22.9856 24.0178 24.5444C22.5696 26.1032 20.6333 26.9804 18.6145 26.9921C16.5956 27.0039 14.6511 26.1492 13.1883 24.6073C11.7255 23.0654 10.8579 20.9559 10.7675 18.7209V18.7012C10.7479 18.4599 10.7479 18.2171 10.7675 17.9758C10.8508 16.9279 11.2845 15.9524 11.9833 15.2405C12.6821 14.5287 13.5957 14.1319 14.5449 14.1279C15.4941 14.124 16.4104 14.5132 17.1141 15.2192C17.8177 15.9252 18.2579 16.8971 18.3484 17.9443H18.3768C18.4036 18.037 18.4563 18.1179 18.5272 18.1753C18.5982 18.2327 18.6838 18.2636 18.7717 18.2636C18.7971 18.2665 18.8227 18.2665 18.8482 18.2636C18.9217 18.2486 18.9902 18.212 19.0466 18.1575C19.1029 18.1031 19.145 18.0328 19.1683 17.9541C19.2515 17.0313 19.6197 16.1685 20.2107 15.5118C20.7016 14.9677 21.3236 14.5917 22.0023 14.4287C22.6809 14.2658 23.3876 14.3229 24.0377 14.5931C24.6879 14.8634 25.2541 15.3354 25.6687 15.9527C26.0833 16.57 26.3287 17.3066 26.3757 18.0743C26.3891 18.252 26.3915 18.4305 26.3828 18.6085V18.6302Z"/>
<path d="M31.7965 5.86835V18.6965H35.8976C39.4364 18.6965 41.52 15.8559 41.52 12.2641C41.52 8.74551 39.4364 5.86835 35.8976 5.86835H31.7965ZM33.1856 17.3037V7.27945H35.8645C38.5104 7.27945 40.1475 9.4419 40.1475 12.2824C40.1475 15.1596 38.5104 17.3037 35.8645 17.3037H33.1856Z"/>
<path d="M50.2584 17.0655C49.4811 17.4503 48.522 17.6885 47.6125 17.7069C45.5454 17.7069 44.2886 16.534 44.3548 14.2616C45.1651 14.9213 46.4384 15.1412 47.4967 15.1412C48.8858 15.0863 50.5395 14.4082 50.6222 12.5756C50.7545 10.4498 48.8527 9.64348 47.2156 9.64348C44.9997 9.69846 43.313 11.1829 43.1311 13.8218C42.9161 16.9555 44.702 18.9164 47.5463 18.8614C48.4724 18.8431 49.3984 18.6965 50.308 18.2017L50.2584 17.0655ZM44.4705 13.162C44.7847 11.6043 45.8265 10.8163 47.2156 10.8163C48.1747 10.8163 49.4977 11.3111 49.3654 12.5206C49.2827 13.6568 48.1747 14.0234 47.2652 14.0234C46.3557 14.0234 45.1485 13.7668 44.4705 13.162Z"/>
<path d="M52.4911 5.2636V15.5078C52.4911 18.2383 53.4171 19.1729 55.848 18.7331L55.7984 17.5969C54.1282 17.8351 53.7975 17.2304 53.7975 15.5078V5.2636H52.4911Z"/>
<path d="M56.9955 6.94958C56.9955 7.57266 57.4254 7.8842 57.8388 7.86587C58.2357 7.84755 58.6326 7.55433 58.6326 6.94958C58.6326 6.34483 58.2357 6.05161 57.8223 6.05161C57.4089 6.05161 56.9955 6.34483 56.9955 6.94958ZM58.4507 9.9367H57.1608V18.6965H58.4507V9.9367Z"/>
<path d="M60.4929 12.2824C60.4929 16.3141 63.1222 18.8431 66.3468 18.8431C68.662 18.8431 70.8944 17.4686 71.5559 14.5915H70.2164C69.6045 16.4424 68.0997 17.432 66.3303 17.432C63.6679 17.432 61.8985 15.1779 61.8985 12.2824C61.8985 9.29529 63.6844 7.07786 66.3468 7.13284C68.017 7.13284 69.4392 7.99415 70.1503 9.73511H71.4897C70.7952 7.05954 68.5793 5.72175 66.3468 5.72175C63.0891 5.66677 60.4929 8.26904 60.4929 12.2824Z"/>
<path d="M74.842 13.5652C74.842 11.9525 75.8177 10.8713 77.2233 10.8713C78.8935 10.8713 79.4557 11.8792 79.4557 13.9501V16.5523C79.4557 18.3116 79.9684 19.0446 81.8205 18.6965L81.8039 17.5969C80.8117 17.7435 80.7621 17.3403 80.7621 16.4607V13.9501C80.7621 11.7876 80.0841 9.69846 77.6202 9.69846C76.4461 9.69846 75.5531 9.99167 74.8255 11.1462V5.31858H73.5191V18.7331H74.842V13.5652Z"/>
<path d="M90.0335 17.0655C89.2563 17.4503 88.2971 17.6885 87.3876 17.7069C85.3206 17.7069 84.0638 16.534 84.1299 14.2616C84.9402 14.9213 86.2135 15.1412 87.2719 15.1412C88.661 15.0863 90.3146 14.4082 90.3973 12.5756C90.5296 10.4498 88.6279 9.64348 86.9908 9.64348C84.7748 9.69846 83.0881 11.1829 82.9062 13.8218C82.6912 16.9555 84.4772 18.9164 87.3215 18.8614C88.2475 18.8431 89.1736 18.6965 90.0831 18.2017L90.0335 17.0655ZM84.2457 13.162C84.5599 11.6043 85.6017 10.8163 86.9908 10.8163C87.9499 10.8163 89.2728 11.3111 89.1405 12.5206C89.0578 13.6568 87.9499 14.0234 87.0404 14.0234C86.1308 14.0234 84.9237 13.7668 84.2457 13.162Z"/>
<path d="M93.771 11.0362C93.7214 9.68013 92.845 9.53353 91.6047 9.77176L91.6213 10.7247C92.5639 10.6331 92.5804 11.1279 92.5804 11.9342V18.6965H93.8537V13.1987C93.8537 11.8059 94.9121 10.853 96.0531 10.853C96.6649 10.853 97.2272 11.0729 97.7398 11.4394L98.054 10.2299C97.5083 9.79009 96.8799 9.57018 96.1854 9.57018C95.127 9.57018 94.2175 9.95502 93.771 11.0362Z"/>
<path d="M100.909 11.0362C100.859 9.68013 99.9829 9.53353 98.7426 9.77176L98.7592 10.7247C99.7017 10.6331 99.7183 11.1279 99.7183 11.9342V18.6965H100.992V13.1987C100.992 11.8059 102.05 10.853 103.191 10.853C103.803 10.853 104.365 11.0729 104.878 11.4394L105.192 10.2299C104.646 9.79009 104.018 9.57018 103.323 9.57018C102.265 9.57018 101.355 9.95502 100.909 11.0362Z"/>
<path d="M106.939 22.5266C109.949 24.3775 114 23.6628 114 19.1363V9.86339H112.727V13.8218C112.727 15.4894 112.28 17.6519 110.395 17.6519C108.874 17.6519 108.063 16.644 108.063 14.4998V11.8243C108.063 10.0833 107.253 9.5152 105.682 9.88172V10.9996C106.674 10.853 106.757 11.0729 106.757 12.0258V14.5182C106.757 17.3953 107.915 18.898 110.163 18.8797C111.437 18.8797 112.28 18.3116 112.793 17.0105V19.1363C112.793 22.7831 109.221 22.7098 107.038 21.3171L106.939 22.5266Z"/>
</mask>
<path d="M27.2134 18.0231C27.1521 16.977 26.7914 15.9799 26.1838 15.1765C25.5761 14.3732 24.7531 13.8056 23.8343 13.5561C22.9156 13.3066 21.949 13.3883 21.075 13.7893C20.201 14.1903 19.4652 14.8897 18.9745 15.7858C18.8679 14.2764 18.8786 12.7596 19.0065 11.2522C19.2911 8.04509 20.3103 3.65927 23.5529 0.988347C23.6083 0.943476 23.6528 0.883841 23.682 0.814942C23.7112 0.746043 23.7243 0.670099 23.72 0.594115C23.7251 0.479774 23.6914 0.36748 23.6256 0.27924C23.5598 0.190999 23.4666 0.133173 23.3643 0.117095C21.3924 -0.184303 19.3837 0.0986294 17.5426 0.937097C15.8702 1.69522 14.3152 2.73877 12.934 4.02984C12.0434 4.84584 11.2065 5.73116 10.4295 6.67908C10.4402 6.53913 10.4456 6.39918 10.4456 6.25725C10.4461 5.27787 10.194 4.31873 9.7191 3.49278C9.24418 2.66683 8.56616 2.00848 7.76491 1.59527C6.96366 1.18205 6.07255 1.03119 5.19652 1.16043C4.32049 1.28968 3.49603 1.69366 2.82024 2.32479C2.61848 2.51595 2.43165 2.72564 2.26172 2.95162C1.16335 4.2847 0.427053 5.93446 0.137615 7.71093C-0.151823 9.4874 0.0173687 11.3183 0.625708 12.9929C1.23405 14.6675 2.25679 16.1176 3.57619 17.1763C4.89558 18.2351 6.45796 18.8593 8.08343 18.9771H8.11011C8.2205 18.9811 8.32777 18.9362 8.40833 18.8525C8.48889 18.7688 8.53613 18.653 8.53967 18.5307C8.54321 18.4083 8.50275 18.2895 8.4272 18.2002C8.35164 18.1109 8.24718 18.0586 8.13679 18.0546C6.66545 17.9502 5.2508 17.3865 4.05636 16.4287C2.86191 15.4709 1.93643 14.1581 1.38688 12.6419C0.837326 11.1258 0.686145 9.46827 0.950805 7.86093C1.21547 6.2536 1.88516 4.76207 2.88249 3.55874L2.89317 3.54297C3.54359 2.69747 4.46876 2.17048 5.46773 2.07646C6.46671 1.98244 7.45882 2.32898 8.22859 3.04081C8.99836 3.75265 9.48364 4.7723 9.57901 5.8783C9.67439 6.98431 9.37218 8.08736 8.738 8.94788L8.75756 8.97154C8.71048 9.07127 8.69824 9.18674 8.72318 9.29584C8.74812 9.40495 8.80849 9.50003 8.89274 9.56289C8.95435 9.60953 9.02609 9.63706 9.10053 9.6426C9.17497 9.64815 9.2494 9.63152 9.31608 9.59443C9.76816 9.18292 10.3036 8.89911 10.8764 8.76735C11.4492 8.63559 12.0423 8.65982 12.6049 8.83796C13.1674 9.01609 13.6825 9.34282 14.106 9.79009C14.5295 10.2374 14.8488 10.7918 15.0364 11.4059C15.0711 11.5225 15.1461 11.619 15.245 11.6743C15.3439 11.7296 15.4586 11.739 15.5638 11.7006C15.669 11.6622 15.7561 11.579 15.806 11.4694C15.8558 11.3598 15.8644 11.2327 15.8297 11.1162C15.4733 9.94843 14.735 8.97112 13.7603 8.37706C12.7856 7.78299 11.6455 7.61532 10.5647 7.90711C11.4524 6.75599 12.4278 5.69158 13.48 4.72566C15.5487 2.84321 18.6952 0.743923 22.3006 0.931183C21.0735 2.17162 20.1027 3.69123 19.4547 5.386C18.7567 7.23312 18.3234 9.18977 18.1705 11.1852C18.0621 12.4601 18.0348 13.7419 18.0887 15.021C18.0068 14.9146 17.9215 14.8101 17.8325 14.7116C17.2075 14.0197 16.4173 13.5399 15.5548 13.3286C14.6922 13.1173 13.7932 13.1831 12.9633 13.5185C12.1333 13.8538 11.407 14.4447 10.8697 15.2217C10.3323 15.9987 10.0062 16.9296 9.92973 17.9048C9.90839 18.1954 9.90839 18.4875 9.92973 18.7781C10.0141 21.2653 10.9685 23.6186 12.5909 25.3398C14.2133 27.0609 16.3765 28.0149 18.6224 27.9998C20.8684 27.9847 23.0209 27.0017 24.6243 25.2588C26.2278 23.5159 27.1563 21.15 27.2134 18.6618C27.2259 18.4491 27.2259 18.2358 27.2134 18.0231ZM26.3828 18.6302C26.3135 20.8662 25.4659 22.9856 24.0178 24.5444C22.5696 26.1032 20.6333 26.9804 18.6145 26.9921C16.5956 27.0039 14.6511 26.1492 13.1883 24.6073C11.7255 23.0654 10.8579 20.9559 10.7675 18.7209V18.7012C10.7479 18.4599 10.7479 18.2171 10.7675 17.9758C10.8508 16.9279 11.2845 15.9524 11.9833 15.2405C12.6821 14.5287 13.5957 14.1319 14.5449 14.1279C15.4941 14.124 16.4104 14.5132 17.1141 15.2192C17.8177 15.9252 18.2579 16.8971 18.3484 17.9443H18.3768C18.4036 18.037 18.4563 18.1179 18.5272 18.1753C18.5982 18.2327 18.6838 18.2636 18.7717 18.2636C18.7971 18.2665 18.8227 18.2665 18.8482 18.2636C18.9217 18.2486 18.9902 18.212 19.0466 18.1575C19.1029 18.1031 19.145 18.0328 19.1683 17.9541C19.2515 17.0313 19.6197 16.1685 20.2107 15.5118C20.7016 14.9677 21.3236 14.5917 22.0023 14.4287C22.6809 14.2658 23.3876 14.3229 24.0377 14.5931C24.6879 14.8634 25.2541 15.3354 25.6687 15.9527C26.0833 16.57 26.3287 17.3066 26.3757 18.0743C26.3891 18.252 26.3915 18.4305 26.3828 18.6085V18.6302Z" stroke="white" stroke-width="2" mask="url(#path-1-inside-1)"/>
<path d="M31.7965 5.86835V18.6965H35.8976C39.4364 18.6965 41.52 15.8559 41.52 12.2641C41.52 8.74551 39.4364 5.86835 35.8976 5.86835H31.7965ZM33.1856 17.3037V7.27945H35.8645C38.5104 7.27945 40.1475 9.4419 40.1475 12.2824C40.1475 15.1596 38.5104 17.3037 35.8645 17.3037H33.1856Z" stroke="white" stroke-width="2" mask="url(#path-1-inside-1)"/>
<path d="M50.2584 17.0655C49.4811 17.4503 48.522 17.6885 47.6125 17.7069C45.5454 17.7069 44.2886 16.534 44.3548 14.2616C45.1651 14.9213 46.4384 15.1412 47.4967 15.1412C48.8858 15.0863 50.5395 14.4082 50.6222 12.5756C50.7545 10.4498 48.8527 9.64348 47.2156 9.64348C44.9997 9.69846 43.313 11.1829 43.1311 13.8218C42.9161 16.9555 44.702 18.9164 47.5463 18.8614C48.4724 18.8431 49.3984 18.6965 50.308 18.2017L50.2584 17.0655ZM44.4705 13.162C44.7847 11.6043 45.8265 10.8163 47.2156 10.8163C48.1747 10.8163 49.4977 11.3111 49.3654 12.5206C49.2827 13.6568 48.1747 14.0234 47.2652 14.0234C46.3557 14.0234 45.1485 13.7668 44.4705 13.162Z" stroke="white" stroke-width="2" mask="url(#path-1-inside-1)"/>
<path d="M52.4911 5.2636V15.5078C52.4911 18.2383 53.4171 19.1729 55.848 18.7331L55.7984 17.5969C54.1282 17.8351 53.7975 17.2304 53.7975 15.5078V5.2636H52.4911Z" stroke="white" stroke-width="2" mask="url(#path-1-inside-1)"/>
<path d="M56.9955 6.94958C56.9955 7.57266 57.4254 7.8842 57.8388 7.86587C58.2357 7.84755 58.6326 7.55433 58.6326 6.94958C58.6326 6.34483 58.2357 6.05161 57.8223 6.05161C57.4089 6.05161 56.9955 6.34483 56.9955 6.94958ZM58.4507 9.9367H57.1608V18.6965H58.4507V9.9367Z" stroke="white" stroke-width="2" mask="url(#path-1-inside-1)"/>
<path d="M60.4929 12.2824C60.4929 16.3141 63.1222 18.8431 66.3468 18.8431C68.662 18.8431 70.8944 17.4686 71.5559 14.5915H70.2164C69.6045 16.4424 68.0997 17.432 66.3303 17.432C63.6679 17.432 61.8985 15.1779 61.8985 12.2824C61.8985 9.29529 63.6844 7.07786 66.3468 7.13284C68.017 7.13284 69.4392 7.99415 70.1503 9.73511H71.4897C70.7952 7.05954 68.5793 5.72175 66.3468 5.72175C63.0891 5.66677 60.4929 8.26904 60.4929 12.2824Z" stroke="white" stroke-width="2" mask="url(#path-1-inside-1)"/>
<path d="M74.842 13.5652C74.842 11.9525 75.8177 10.8713 77.2233 10.8713C78.8935 10.8713 79.4557 11.8792 79.4557 13.9501V16.5523C79.4557 18.3116 79.9684 19.0446 81.8205 18.6965L81.8039 17.5969C80.8117 17.7435 80.7621 17.3403 80.7621 16.4607V13.9501C80.7621 11.7876 80.0841 9.69846 77.6202 9.69846C76.4461 9.69846 75.5531 9.99167 74.8255 11.1462V5.31858H73.5191V18.7331H74.842V13.5652Z" stroke="white" stroke-width="2" mask="url(#path-1-inside-1)"/>
<path d="M90.0335 17.0655C89.2563 17.4503 88.2971 17.6885 87.3876 17.7069C85.3206 17.7069 84.0638 16.534 84.1299 14.2616C84.9402 14.9213 86.2135 15.1412 87.2719 15.1412C88.661 15.0863 90.3146 14.4082 90.3973 12.5756C90.5296 10.4498 88.6279 9.64348 86.9908 9.64348C84.7748 9.69846 83.0881 11.1829 82.9062 13.8218C82.6912 16.9555 84.4772 18.9164 87.3215 18.8614C88.2475 18.8431 89.1736 18.6965 90.0831 18.2017L90.0335 17.0655ZM84.2457 13.162C84.5599 11.6043 85.6017 10.8163 86.9908 10.8163C87.9499 10.8163 89.2728 11.3111 89.1405 12.5206C89.0578 13.6568 87.9499 14.0234 87.0404 14.0234C86.1308 14.0234 84.9237 13.7668 84.2457 13.162Z" stroke="white" stroke-width="2" mask="url(#path-1-inside-1)"/>
<path d="M93.771 11.0362C93.7214 9.68013 92.845 9.53353 91.6047 9.77176L91.6213 10.7247C92.5639 10.6331 92.5804 11.1279 92.5804 11.9342V18.6965H93.8537V13.1987C93.8537 11.8059 94.9121 10.853 96.0531 10.853C96.6649 10.853 97.2272 11.0729 97.7398 11.4394L98.054 10.2299C97.5083 9.79009 96.8799 9.57018 96.1854 9.57018C95.127 9.57018 94.2175 9.95502 93.771 11.0362Z" stroke="white" stroke-width="2" mask="url(#path-1-inside-1)"/>
<path d="M100.909 11.0362C100.859 9.68013 99.9829 9.53353 98.7426 9.77176L98.7592 10.7247C99.7017 10.6331 99.7183 11.1279 99.7183 11.9342V18.6965H100.992V13.1987C100.992 11.8059 102.05 10.853 103.191 10.853C103.803 10.853 104.365 11.0729 104.878 11.4394L105.192 10.2299C104.646 9.79009 104.018 9.57018 103.323 9.57018C102.265 9.57018 101.355 9.95502 100.909 11.0362Z" stroke="white" stroke-width="2" mask="url(#path-1-inside-1)"/>
<path d="M106.939 22.5266C109.949 24.3775 114 23.6628 114 19.1363V9.86339H112.727V13.8218C112.727 15.4894 112.28 17.6519 110.395 17.6519C108.874 17.6519 108.063 16.644 108.063 14.4998V11.8243C108.063 10.0833 107.253 9.5152 105.682 9.88172V10.9996C106.674 10.853 106.757 11.0729 106.757 12.0258V14.5182C106.757 17.3953 107.915 18.898 110.163 18.8797C111.437 18.8797 112.28 18.3116 112.793 17.0105V19.1363C112.793 22.7831 109.221 22.7098 107.038 21.3171L106.939 22.5266Z" stroke="white" stroke-width="2" mask="url(#path-1-inside-1)"/>
</svg>
