<svg width="293" height="65" viewBox="0 0 293 65" fill="none" xmlns="http://www.w3.org/2000/svg">
<path d="M69.9433 41.8393C69.7858 39.411 68.8587 37.0961 67.2969 35.2313C65.735 33.3664 63.6197 32.0486 61.2584 31.4695C58.897 30.8903 56.4127 31.08 54.1664 32.0108C51.9202 32.9417 50.029 34.5653 48.7677 36.6457C48.4937 33.1416 48.5212 29.6205 48.85 26.1211C49.5814 18.6761 52.201 8.49473 60.535 2.29438C60.6776 2.19021 60.7917 2.05177 60.8668 1.89183C60.9419 1.73189 60.9756 1.55559 60.9647 1.3792C60.9776 1.11376 60.891 0.853079 60.7218 0.648235C60.5527 0.44339 60.3132 0.309152 60.0504 0.271827C54.9823 -0.427847 49.8196 0.228961 45.0876 2.1754C40.7892 3.93534 36.7925 6.35785 33.2426 9.355C30.9537 11.2493 28.8026 13.3045 26.8058 15.505C26.8332 15.1801 26.8469 14.8552 26.8469 14.5258C26.8482 12.2522 26.2004 10.0256 24.9798 8.10823C23.7592 6.19085 22.0165 4.66254 19.9572 3.7033C17.8978 2.74405 15.6075 2.39382 13.356 2.69386C11.1044 2.9939 8.9854 3.93171 7.24851 5.39684C6.72996 5.84059 6.24977 6.32737 5.81303 6.85198C2.99001 9.94664 1.0976 13.7764 0.353695 17.9004C-0.390211 22.0243 0.0446405 26.2747 1.60818 30.1622C3.17172 34.0496 5.80036 37.416 9.19143 39.8737C12.5825 42.3314 16.5981 43.7805 20.7758 44.0541H20.8444C21.1281 44.0632 21.4038 43.9591 21.6109 43.7647C21.8179 43.5704 21.9394 43.3016 21.9485 43.0176C21.9575 42.7337 21.8536 42.4577 21.6594 42.2504C21.4652 42.0432 21.1967 41.9217 20.913 41.9126C17.1314 41.6702 13.4955 40.3616 10.4255 38.1381C7.35561 35.9146 4.97696 32.8669 3.56452 29.3473C2.15208 25.8277 1.76351 21.9799 2.44374 18.2486C3.12396 14.5173 4.8452 11.0548 7.40851 8.26136L7.43594 8.22475C9.10765 6.26198 11.4855 5.03861 14.053 4.82035C16.6206 4.60208 19.1705 5.40655 21.1489 7.05903C23.1274 8.7115 24.3746 11.0785 24.6197 13.6461C24.8649 16.2136 24.0881 18.7742 22.4582 20.7719L22.5085 20.8268C22.3875 21.0583 22.356 21.3263 22.4201 21.5796C22.4842 21.8329 22.6394 22.0536 22.8559 22.1996C23.0142 22.3078 23.1986 22.3717 23.39 22.3846C23.5813 22.3975 23.7726 22.3589 23.944 22.2728C25.1059 21.3175 26.482 20.6586 27.9543 20.3528C29.4265 20.0469 30.9509 20.1032 32.3967 20.5167C33.8425 20.9302 35.1664 21.6887 36.2549 22.727C37.3434 23.7653 38.164 25.0525 38.6462 26.478C38.7353 26.7487 38.9282 26.9728 39.1824 27.1011C39.4366 27.2294 39.7313 27.2513 40.0017 27.1621C40.272 27.0729 40.4959 26.8799 40.6241 26.6254C40.7523 26.371 40.7742 26.076 40.6851 25.8054C39.7692 23.0946 37.8715 20.8258 35.3664 19.4467C32.8614 18.0677 29.9309 17.6784 27.1532 18.3558C29.4347 15.6835 31.9416 13.2126 34.646 10.9703C39.9628 6.6003 48.0499 1.72696 57.3166 2.16168C54.1626 5.04126 51.6675 8.56892 50.002 12.5032C48.2079 16.7912 47.0943 21.3334 46.7013 25.9655C46.4228 28.9252 46.3525 31.9007 46.491 34.8702C46.2807 34.6231 46.0613 34.3806 45.8327 34.1518C44.2264 32.5458 42.1954 31.432 39.9785 30.9414C37.7617 30.4508 35.4509 30.6037 33.3179 31.3822C31.1848 32.1607 29.318 33.5324 27.9369 35.3361C26.5558 37.1399 25.7177 39.3007 25.5212 41.5648C25.4663 42.2394 25.4663 42.9173 25.5212 43.5919C25.7379 49.3659 28.1909 54.8288 32.3609 58.8244C36.5308 62.82 42.0904 65.0347 47.8629 64.9996C53.6354 64.9645 59.1677 62.6824 63.2889 58.6365C67.41 54.5905 69.7966 49.0981 69.9433 43.3219C69.9753 42.8282 69.9753 42.333 69.9433 41.8393ZM67.8084 43.2487C67.6302 48.4393 65.4519 53.3595 61.7299 56.9781C58.0079 60.5968 53.0311 62.6331 47.8424 62.6603C42.6537 62.6875 37.6559 60.7035 33.8962 57.1241C30.1365 53.5447 27.9068 48.6477 27.6744 43.4592V43.4134C27.6241 42.8533 27.6241 42.2897 27.6744 41.7295C27.8886 39.297 29.003 37.0324 30.7992 35.3798C32.5953 33.7273 34.9434 32.8061 37.3831 32.7969C39.8227 32.7878 42.1777 33.6913 43.9862 35.3303C45.7946 36.9693 46.926 39.2255 47.1585 41.6563H47.2316C47.3004 41.8716 47.4358 42.0594 47.6183 42.1927C47.8007 42.3259 48.0207 42.3977 48.2465 42.3976C48.3119 42.4044 48.3778 42.4044 48.4431 42.3976C48.6321 42.3629 48.8082 42.2778 48.953 42.1514C49.0978 42.025 49.2059 41.8619 49.266 41.6792C49.4797 39.5368 50.4261 37.5341 51.9449 36.0096C53.2068 34.7464 54.8054 33.8735 56.5497 33.4953C58.294 33.1171 60.1102 33.2496 61.7812 33.877C63.4522 34.5043 64.9075 35.6 65.9731 37.0331C67.0386 38.4661 67.6694 40.176 67.7901 41.9583C67.8246 42.3708 67.8307 42.7851 67.8084 43.1984V43.2487Z" fill="#BD1F31"/>
<path d="M81.7225 13.623V43.4025H92.2631C101.358 43.4025 106.714 36.8085 106.714 28.4702C106.714 20.3021 101.358 13.623 92.2631 13.623H81.7225ZM85.2927 40.1693V16.8987H92.178C98.9784 16.8987 103.186 21.9187 103.186 28.5127C103.186 35.1919 98.9784 40.1693 92.178 40.1693H85.2927Z" fill="#BD1F31"/>
<path d="M129.173 39.6162C127.175 40.5096 124.71 41.0627 122.372 41.1052C117.06 41.1052 113.83 38.3825 114 33.1073C116.082 34.6388 119.355 35.1493 122.075 35.1493C125.645 35.0217 129.895 33.4476 130.108 29.1934C130.448 24.2585 125.56 22.3867 121.352 22.3867C115.657 22.5143 111.322 25.9602 110.854 32.0863C110.302 39.361 114.892 43.913 122.202 43.7854C124.583 43.7428 126.963 43.4025 129.3 42.2539L129.173 39.6162ZM114.297 30.5548C115.105 26.9387 117.782 25.1094 121.352 25.1094C123.818 25.1094 127.218 26.258 126.878 29.0658C126.665 31.7034 123.818 32.5542 121.48 32.5542C119.142 32.5542 116.04 31.9586 114.297 30.5548Z" fill="#BD1F31"/>
<path d="M134.911 12.2191V36.0002C134.911 42.3389 137.291 44.5086 143.539 43.4876L143.412 40.85C139.119 41.403 138.269 39.9991 138.269 36.0002V12.2191H134.911Z" fill="#BD1F31"/>
<path d="M146.488 16.133C146.488 17.5794 147.593 18.3026 148.656 18.2601C149.676 18.2175 150.696 17.5368 150.696 16.133C150.696 14.7291 149.676 14.0484 148.613 14.0484C147.551 14.0484 146.488 14.7291 146.488 16.133ZM150.229 23.0673H146.913V43.4025H150.229V23.0673Z" fill="#BD1F31"/>
<path d="M155.477 28.5127C155.477 37.872 162.235 43.7428 170.523 43.7428C176.473 43.7428 182.211 40.5522 183.911 33.873H180.468C178.896 38.1698 175.028 40.4671 170.48 40.4671C163.638 40.4671 159.09 35.2344 159.09 28.5127C159.09 21.5784 163.68 16.4308 170.523 16.5584C174.816 16.5584 178.471 18.5579 180.298 22.5994H183.741C181.956 16.3882 176.261 13.2826 170.523 13.2826C162.15 13.155 155.477 19.196 155.477 28.5127Z" fill="#BD1F31"/>
<path d="M192.357 31.4907C192.357 27.747 194.865 25.237 198.477 25.237C202.77 25.237 204.215 27.5768 204.215 32.3841V38.4251C204.215 42.5091 205.533 44.2108 210.293 43.4025L210.25 40.85C207.7 41.1903 207.573 40.2544 207.573 38.2123V32.3841C207.573 27.3641 205.83 22.5143 199.497 22.5143C196.48 22.5143 194.185 23.195 192.315 25.8751V12.3467H188.957V43.4876H192.357V31.4907Z" fill="#BD1F31"/>
<path d="M231.402 39.6162C229.404 40.5096 226.939 41.0627 224.602 41.1052C219.289 41.1052 216.059 38.3825 216.229 33.1073C218.311 34.6388 221.584 35.1493 224.304 35.1493C227.874 35.0217 232.124 33.4476 232.337 29.1934C232.677 24.2585 227.789 22.3867 223.581 22.3867C217.886 22.5143 213.551 25.9602 213.083 32.0863C212.531 39.361 217.121 43.913 224.432 43.7854C226.812 43.7428 229.192 43.4025 231.529 42.2539L231.402 39.6162ZM216.526 30.5548C217.334 26.9387 220.011 25.1094 223.581 25.1094C226.047 25.1094 229.447 26.258 229.107 29.0658C228.894 31.7034 226.047 32.5542 223.709 32.5542C221.371 32.5542 218.269 31.9586 216.526 30.5548Z" fill="#BD1F31"/>
<path d="M241.008 25.6199C240.881 22.4717 238.628 22.1314 235.44 22.6845L235.483 24.8966C237.905 24.6839 237.948 25.8326 237.948 27.7044V43.4025H241.221V30.6398C241.221 27.4066 243.941 25.1944 246.873 25.1944C248.446 25.1944 249.891 25.7049 251.209 26.5558L252.016 23.748C250.613 22.727 248.998 22.2165 247.213 22.2165C244.493 22.2165 242.156 23.1099 241.008 25.6199Z" fill="#BD1F31"/>
<path d="M259.354 25.6199C259.226 22.4717 256.974 22.1314 253.786 22.6845L253.828 24.8966C256.251 24.6839 256.293 25.8326 256.293 27.7044V43.4025H259.566V30.6398C259.566 27.4066 262.286 25.1944 265.219 25.1944C266.791 25.1944 268.237 25.7049 269.554 26.5558L270.362 23.748C268.959 22.727 267.344 22.2165 265.559 22.2165C262.839 22.2165 260.501 23.1099 259.354 25.6199Z" fill="#BD1F31"/>
<path d="M274.852 52.2938C282.587 56.5906 293 54.9314 293 44.4235V22.8972H289.727V32.0863C289.727 35.9576 288.58 40.9776 283.735 40.9776C279.824 40.9776 277.742 38.6378 277.742 33.6603V27.4492C277.742 23.4077 275.659 22.0889 271.621 22.9397V25.5348C274.172 25.1944 274.384 25.7049 274.384 27.9171V33.7029C274.384 40.382 277.359 43.8705 283.14 43.8279C286.412 43.8279 288.58 42.5091 289.897 39.4886V44.4235C289.897 52.8894 280.717 52.7192 275.107 49.486L274.852 52.2938Z" fill="#BD1F31"/>
</svg>
