<svg xmlns="http://www.w3.org/2000/svg" viewBox="0 0 329.23 329.23"><defs><style>.cls-1{fill:#fff;}.cls-2{fill:#d13e6a;}</style></defs><title>Recurso 28</title><g id="Capa_2" data-name="Capa 2"><g id="Capa_1-2" data-name="Capa 1"><circle class="cls-1" cx="164.61" cy="164.61" r="164.61"/><path class="cls-2" d="M257.17,202.79a34.18,34.18,0,0,0-63.34-15.53,183.18,183.18,0,0,1,.26-31.45c2.18-22.25,10-52.66,34.94-71.18a3.23,3.23,0,0,0,1.29-2.71,3.2,3.2,0,0,0-2.73-3.31c-14.67-2.17-29.73-.26-44.76,5.67C170.92,89,159,96.19,147.41,105.73a186.83,186.83,0,0,0-19.25,18.37c.08-1,.12-1.94.12-2.92A35.66,35.66,0,0,0,69.67,93.9a36.89,36.89,0,0,0-4.29,4.28,66.47,66.47,0,0,0,44.75,111.15h.21a3.2,3.2,0,0,0,.2-6.4A60.05,60.05,0,0,1,70.15,102.46l.09-.1A28.51,28.51,0,0,1,73.8,98.8a29.25,29.25,0,0,1,41.35,41l.15.16a3.21,3.21,0,0,0,1,4.1,3.19,3.19,0,0,0,3.26.21l.05.05a27.8,27.8,0,0,1,44,12.57,3.2,3.2,0,1,0,6.07-2.05,34.22,34.22,0,0,0-40.5-22.26,184.15,184.15,0,0,1,22.42-22.05c15.9-13.07,40.08-27.63,67.8-26.33a88.18,88.18,0,0,0-21.83,30.9c-5.11,11.75-8.43,25.28-9.88,40.21a186.37,186.37,0,0,0-.63,26.61c-.63-.74-1.29-1.46-2-2.14A35.65,35.65,0,0,0,124.36,202a36.07,36.07,0,0,0,0,6.06,66.46,66.46,0,0,0,132.81-.81A34.31,34.31,0,0,0,257.17,202.79Zm-6.39,4.05V207a60.05,60.05,0,0,1-120,.73v-.14a30.17,30.17,0,0,1,0-5,29.25,29.25,0,0,1,58.27-.22h.22a3.19,3.19,0,0,0,3,2.22,4,4,0,0,0,.59,0,3.19,3.19,0,0,0,2.45-2.15h.07a27.8,27.8,0,0,1,55.4.9A27.48,27.48,0,0,1,250.78,206.84Z"/></g></g></svg>