<svg xmlns="http://www.w3.org/2000/svg" viewBox="0 0 209.25 193.74"><defs><style>.cls-1{fill:#fff;}</style></defs><title>Recurso 29</title><g id="Capa_2" data-name="Capa 2"><g id="Capa_1-2" data-name="Capa 1"><path class="cls-1" d="M209.18,125.05a34.2,34.2,0,0,0-58.31-22,34.57,34.57,0,0,0-5,6.42,183.18,183.18,0,0,1,.26-31.45c2.18-22.25,10-52.66,34.94-71.19a3.19,3.19,0,0,0,1.29-2.71A3.2,3.2,0,0,0,179.6.86C164.93-1.3,149.88.61,134.85,6.53,122.93,11.23,111,18.45,99.43,28A188.13,188.13,0,0,0,80.17,46.35c.08-1,.12-1.94.12-2.91A35.67,35.67,0,0,0,21.68,16.15a36.21,36.21,0,0,0-4.29,4.29A66.47,66.47,0,0,0,62.14,131.59h.21a3.2,3.2,0,0,0,.2-6.39A60.06,60.06,0,0,1,22.16,24.71l.09-.1a29.92,29.92,0,0,1,3.56-3.56A29.25,29.25,0,0,1,67.16,62.1l.16.15a3.19,3.19,0,0,0,2.84,4.66,3.32,3.32,0,0,0,1.45-.34l0,.05a27.79,27.79,0,0,1,44,12.57,3.2,3.2,0,0,0,6.07-2A34.16,34.16,0,0,0,81.21,54.88a183.23,183.23,0,0,1,22.41-22.06c15.9-13.06,40.09-27.63,67.8-26.33A88.35,88.35,0,0,0,149.59,37.4c-5.11,11.74-8.43,25.27-9.88,40.21a187.83,187.83,0,0,0-.63,26.61c-.63-.74-1.28-1.46-2-2.15a35.66,35.66,0,0,0-60.74,22.15,36.07,36.07,0,0,0,0,6.06,66.46,66.46,0,0,0,132.81-.81A32.6,32.6,0,0,0,209.18,125.05Zm-6.39,4v.11a60.06,60.06,0,0,1-120,.72v-.13a30.29,30.29,0,0,1,0-5,29.25,29.25,0,0,1,58.27-.21h.22a3.2,3.2,0,0,0,3,2.22,3,3,0,0,0,.59-.06,3.17,3.17,0,0,0,2.45-2.15h.07a27.8,27.8,0,0,1,55.4.91A27.48,27.48,0,0,1,202.79,129.1Z"/></g></g></svg>